<svg width="200" height="200" viewBox="0 0 200 200" fill="none" xmlns="http://www.w3.org/2000/svg">
<path d="M173.187 110.25C178.312 101.812 181.25 91.875 181.25 81.25C181.25 50.1875 156.062 25 125 25C98.25 25 75.875 43.6875 70.1875 68.75H65.625C46.75 68.75 31.25 84.1875 31.25 103.125C31.25 122.062 46.75 137.5 65.625 137.5H75" fill="white"/>
<path d="M173.187 110.25C178.312 101.812 181.25 91.875 181.25 81.25C181.25 50.1875 156.062 25 125 25C98.25 25 75.875 43.6875 70.1875 68.75H65.625C46.75 68.75 31.25 84.1875 31.25 103.125C31.25 122.062 46.75 137.5 65.625 137.5H75" stroke="black" stroke-width="2" stroke-miterlimit="10" stroke-linecap="round" stroke-linejoin="round"/>
<path d="M140.125 93.75C120.563 93.75 104.25 107.25 100.063 125.375C86.25 125.375 74.9375 136.563 74.9375 150.188C74.9375 163.813 86.3125 175 100.125 175H140.125C162.813 175 181.25 156.812 181.25 134.375C181.25 111.938 162.875 93.75 140.125 93.75Z" fill="white" stroke="black" stroke-width="2" stroke-miterlimit="10" stroke-linecap="round" stroke-linejoin="round"/>
</svg>
